  0
SECTION
  2
HEADER
  9
$ACADVER
  1
AC1009
  9
$INSUNITS
  70
9
  9
$EXTMIN
  10
-929.25
  20
-339.5
  9
$EXTMAX
  10
70.75
  20
660.5
  0
ENDSEC
  0
SECTION
  2
TABLES
  0
TABLE
  2
LTYPE
  70
1
  0
LTYPE
  2
CONTINUOUS
  70
64
  3
Solid line
  72
65
  73
0
  40
0
  0
ENDTAB
  0
TABLE
  2
LAYER
  70
2
  0
LAYER
  2
Error
  70
0
  62
1
  6
CONTINUOUS
  0
LAYER
  2
Thick_Metal
  70
0
  62
31
  6
CONTINUOUS
  0
ENDTAB
  0
ENDSEC
  0
SECTION
  2
BLOCKS
  0
ENDSEC
  0
SECTION
  2
ENTITIES
  0
POLYLINE
  8
Error
  70
0
  66
1
  0
VERTEX
  8
Error
  10
-929.25
  20
660.5
  0
VERTEX
  8
Error
  10
70.75
  20
660.5
  0
VERTEX
  8
Error
  10
70.75
  20
-339.5
  0
VERTEX
  8
Error
  10
-929.25
  20
-339.5
  0
VERTEX
  8
Error
  10
-929.25
  20
660.5
  0
VERTEX
  8
Error
  10
-929
  20
660.25
  0
SEQEND
  0
POLYLINE
  8
Thick_Metal
  70
1
  66
1
  0
VERTEX
  8
Thick_Metal
  10
-344
  20
444.25
  0
VERTEX
  8
Thick_Metal
  10
-341
  20
444
  0
VERTEX
  8
Thick_Metal
  10
-337.75
  20
443
  0
VERTEX
  8
Thick_Metal
  10
-335
  20
441.75
  0
VERTEX
  8
Thick_Metal
  10
-332.5
  20
439.75
  0
VERTEX
  8
Thick_Metal
  10
-330.5
  20
437.5
  0
VERTEX
  8
Thick_Metal
  10
-328.75
  20
434.75
  0
VERTEX
  8
Thick_Metal
  10
-327.75
  20
432
  0
VERTEX
  8
Thick_Metal
  10
-327
  20
428.75
  0
VERTEX
  8
Thick_Metal
  10
-327
  20
425.75
  0
VERTEX
  8
Thick_Metal
  10
-327.75
  20
422.5
  0
VERTEX
  8
Thick_Metal
  10
-328.75
  20
419.75
  0
VERTEX
  8
Thick_Metal
  10
-330.5
  20
417
  0
VERTEX
  8
Thick_Metal
  10
-332.5
  20
414.75
  0
VERTEX
  8
Thick_Metal
  10
-335
  20
412.75
  0
VERTEX
  8
Thick_Metal
  10
-337.75
  20
411.5
  0
VERTEX
  8
Thick_Metal
  10
-341
  20
410.5
  0
VERTEX
  8
Thick_Metal
  10
-344
  20
410.25
  0
VERTEX
  8
Thick_Metal
  10
-344
  20
356.75
  0
VERTEX
  8
Thick_Metal
  10
-337.5
  20
357
  0
VERTEX
  8
Thick_Metal
  10
-331
  20
358
  0
VERTEX
  8
Thick_Metal
  10
-324.75
  20
359.5
  0
VERTEX
  8
Thick_Metal
  10
-318.5
  20
361.5
  0
VERTEX
  8
Thick_Metal
  10
-312.5
  20
364.25
  0
VERTEX
  8
Thick_Metal
  10
-307
  20
367.25
  0
VERTEX
  8
Thick_Metal
  10
-301.5
  20
371
  0
VERTEX
  8
Thick_Metal
  10
-296.5
  20
375.25
  0
VERTEX
  8
Thick_Metal
  10
-292
  20
379.75
  0
VERTEX
  8
Thick_Metal
  10
-287.75
  20
384.75
  0
VERTEX
  8
Thick_Metal
  10
-284
  20
390.25
  0
VERTEX
  8
Thick_Metal
  10
-281
  20
395.75
  0
VERTEX
  8
Thick_Metal
  10
-278.25
  20
401.75
  0
VERTEX
  8
Thick_Metal
  10
-276.25
  20
408
  0
VERTEX
  8
Thick_Metal
  10
-274.75
  20
414.25
  0
VERTEX
  8
Thick_Metal
  10
-273.75
  20
420.75
  0
VERTEX
  8
Thick_Metal
  10
-273.5
  20
427.25
  0
VERTEX
  8
Thick_Metal
  10
-273.75
  20
433.75
  0
VERTEX
  8
Thick_Metal
  10
-274.75
  20
440.25
  0
VERTEX
  8
Thick_Metal
  10
-276.25
  20
446.5
  0
VERTEX
  8
Thick_Metal
  10
-278.25
  20
452.75
  0
VERTEX
  8
Thick_Metal
  10
-281
  20
458.75
  0
VERTEX
  8
Thick_Metal
  10
-284
  20
464.25
  0
VERTEX
  8
Thick_Metal
  10
-287.75
  20
469.75
  0
VERTEX
  8
Thick_Metal
  10
-292
  20
474.75
  0
VERTEX
  8
Thick_Metal
  10
-296.5
  20
479.25
  0
VERTEX
  8
Thick_Metal
  10
-301.5
  20
483.5
  0
VERTEX
  8
Thick_Metal
  10
-307
  20
487.25
  0
VERTEX
  8
Thick_Metal
  10
-312.5
  20
490.25
  0
VERTEX
  8
Thick_Metal
  10
-318.5
  20
493
  0
VERTEX
  8
Thick_Metal
  10
-324.75
  20
495
  0
VERTEX
  8
Thick_Metal
  10
-331
  20
496.5
  0
VERTEX
  8
Thick_Metal
  10
-337.5
  20
497.5
  0
VERTEX
  8
Thick_Metal
  10
-344
  20
497.75
  0
SEQEND
  0
POLYLINE
  8
Thick_Metal
  70
1
  66
1
  0
VERTEX
  8
Thick_Metal
  10
-394
  20
497.75
  0
VERTEX
  8
Thick_Metal
  10
-394
  20
657.75
  0
VERTEX
  8
Thick_Metal
  10
-441
  20
657.75
  0
VERTEX
  8
Thick_Metal
  10
-441
  20
497.75
  0
SEQEND
  0
POLYLINE
  8
Thick_Metal
  70
1
  66
1
  0
VERTEX
  8
Thick_Metal
  10
-394
  20
444.25
  0
VERTEX
  8
Thick_Metal
  10
-344
  20
444.25
  0
VERTEX
  8
Thick_Metal
  10
-344
  20
497.75
  0
VERTEX
  8
Thick_Metal
  10
-394
  20
497.75
  0
SEQEND
  0
POLYLINE
  8
Thick_Metal
  70
1
  66
1
  0
VERTEX
  8
Thick_Metal
  10
-491
  20
467.5
  0
VERTEX
  8
Thick_Metal
  10
-441
  20
467.5
  0
VERTEX
  8
Thick_Metal
  10
-441
  20
474.5
  0
VERTEX
  8
Thick_Metal
  10
-491
  20
474.5
  0
SEQEND
  0
POLYLINE
  8
Thick_Metal
  70
1
  66
1
  0
VERTEX
  8
Thick_Metal
  10
-394
  20
497.75
  0
VERTEX
  8
Thick_Metal
  10
-394
  20
444.25
  0
VERTEX
  8
Thick_Metal
  10
-417.5
  20
444.25
  0
VERTEX
  8
Thick_Metal
  10
-417.5
  20
467.5
  0
VERTEX
  8
Thick_Metal
  10
-441
  20
467.5
  0
VERTEX
  8
Thick_Metal
  10
-441
  20
497.75
  0
SEQEND
  0
POLYLINE
  8
Thick_Metal
  70
1
  66
1
  0
VERTEX
  8
Thick_Metal
  10
-454
  20
356.75
  0
VERTEX
  8
Thick_Metal
  10
-454
  20
398.5
  0
VERTEX
  8
Thick_Metal
  10
-399
  20
398.5
  0
VERTEX
  8
Thick_Metal
  10
-399
  20
410.25
  0
VERTEX
  8
Thick_Metal
  10
-344
  20
410.25
  0
VERTEX
  8
Thick_Metal
  10
-344
  20
356.75
  0
SEQEND
  0
POLYLINE
  8
Thick_Metal
  70
1
  66
1
  0
VERTEX
  8
Thick_Metal
  10
-454
  20
368.5
  0
VERTEX
  8
Thick_Metal
  10
-454
  20
368.5
  0
VERTEX
  8
Thick_Metal
  10
-454
  20
398.5
  0
VERTEX
  8
Thick_Metal
  10
-454
  20
398.5
  0
SEQEND
  0
POLYLINE
  8
Thick_Metal
  70
1
  66
1
  0
VERTEX
  8
Thick_Metal
  10
-491
  20
387
  0
VERTEX
  8
Thick_Metal
  10
-494
  20
387
  0
VERTEX
  8
Thick_Metal
  10
-496.75
  20
387.5
  0
VERTEX
  8
Thick_Metal
  10
-499.75
  20
388
  0
VERTEX
  8
Thick_Metal
  10
-502.5
  20
388.75
  0
VERTEX
  8
Thick_Metal
  10
-505.5
  20
389.75
  0
VERTEX
  8
Thick_Metal
  10
-508
  20
390.75
  0
VERTEX
  8
Thick_Metal
  10
-510.75
  20
392.25
  0
VERTEX
  8
Thick_Metal
  10
-513.25
  20
393.75
  0
VERTEX
  8
Thick_Metal
  10
-515.5
  20
395.5
  0
VERTEX
  8
Thick_Metal
  10
-517.75
  20
397.25
  0
VERTEX
  8
Thick_Metal
  10
-520
  20
399.25
  0
VERTEX
  8
Thick_Metal
  10
-522
  20
401.5
  0
VERTEX
  8
Thick_Metal
  10
-523.75
  20
403.75
  0
VERTEX
  8
Thick_Metal
  10
-525.25
  20
406.25
  0
VERTEX
  8
Thick_Metal
  10
-526.75
  20
408.75
  0
VERTEX
  8
Thick_Metal
  10
-528
  20
411.5
  0
VERTEX
  8
Thick_Metal
  10
-529
  20
414.25
  0
VERTEX
  8
Thick_Metal
  10
-530
  20
417
  0
VERTEX
  8
Thick_Metal
  10
-530.5
  20
420
  0
VERTEX
  8
Thick_Metal
  10
-531
  20
422.75
  0
VERTEX
  8
Thick_Metal
  10
-531.25
  20
425.75
  0
VERTEX
  8
Thick_Metal
  10
-531.25
  20
428.75
  0
VERTEX
  8
Thick_Metal
  10
-531
  20
431.75
  0
VERTEX
  8
Thick_Metal
  10
-530.5
  20
434.5
  0
VERTEX
  8
Thick_Metal
  10
-530
  20
437.5
  0
VERTEX
  8
Thick_Metal
  10
-529
  20
440.25
  0
VERTEX
  8
Thick_Metal
  10
-528
  20
443
  0
VERTEX
  8
Thick_Metal
  10
-526.75
  20
445.75
  0
VERTEX
  8
Thick_Metal
  10
-525.25
  20
448.25
  0
VERTEX
  8
Thick_Metal
  10
-523.75
  20
450.75
  0
VERTEX
  8
Thick_Metal
  10
-522
  20
453
  0
VERTEX
  8
Thick_Metal
  10
-520
  20
455.25
  0
VERTEX
  8
Thick_Metal
  10
-517.75
  20
457.25
  0
VERTEX
  8
Thick_Metal
  10
-515.5
  20
459
  0
VERTEX
  8
Thick_Metal
  10
-513.25
  20
460.75
  0
VERTEX
  8
Thick_Metal
  10
-510.75
  20
462.25
  0
VERTEX
  8
Thick_Metal
  10
-508
  20
463.75
  0
VERTEX
  8
Thick_Metal
  10
-505.5
  20
464.75
  0
VERTEX
  8
Thick_Metal
  10
-502.5
  20
465.75
  0
VERTEX
  8
Thick_Metal
  10
-499.75
  20
466.5
  0
VERTEX
  8
Thick_Metal
  10
-496.75
  20
467
  0
VERTEX
  8
Thick_Metal
  10
-494
  20
467.5
  0
VERTEX
  8
Thick_Metal
  10
-491
  20
467.5
  0
VERTEX
  8
Thick_Metal
  10
-491
  20
474.5
  0
VERTEX
  8
Thick_Metal
  10
-494.5
  20
474.25
  0
VERTEX
  8
Thick_Metal
  10
-498
  20
474
  0
VERTEX
  8
Thick_Metal
  10
-501.25
  20
473.25
  0
VERTEX
  8
Thick_Metal
  10
-504.5
  20
472.5
  0
VERTEX
  8
Thick_Metal
  10
-508
  20
471.5
  0
VERTEX
  8
Thick_Metal
  10
-511
  20
470
  0
VERTEX
  8
Thick_Metal
  10
-514
  20
468.5
  0
VERTEX
  8
Thick_Metal
  10
-517
  20
466.75
  0
VERTEX
  8
Thick_Metal
  10
-520
  20
464.75
  0
VERTEX
  8
Thick_Metal
  10
-522.5
  20
462.5
  0
VERTEX
  8
Thick_Metal
  10
-525
  20
460
  0
VERTEX
  8
Thick_Metal
  10
-527.25
  20
457.5
  0
VERTEX
  8
Thick_Metal
  10
-529.5
  20
454.75
  0
VERTEX
  8
Thick_Metal
  10
-531.25
  20
451.75
  0
VERTEX
  8
Thick_Metal
  10
-533
  20
448.75
  0
VERTEX
  8
Thick_Metal
  10
-534.5
  20
445.75
  0
VERTEX
  8
Thick_Metal
  10
-535.75
  20
442.5
  0
VERTEX
  8
Thick_Metal
  10
-536.75
  20
439.25
  0
VERTEX
  8
Thick_Metal
  10
-537.5
  20
435.75
  0
VERTEX
  8
Thick_Metal
  10
-538
  20
432.5
  0
VERTEX
  8
Thick_Metal
  10
-538.25
  20
429
  0
VERTEX
  8
Thick_Metal
  10
-538.25
  20
425.5
  0
VERTEX
  8
Thick_Metal
  10
-538
  20
422
  0
VERTEX
  8
Thick_Metal
  10
-537.5
  20
418.75
  0
VERTEX
  8
Thick_Metal
  10
-536.75
  20
415.25
  0
VERTEX
  8
Thick_Metal
  10
-535.75
  20
412
  0
VERTEX
  8
Thick_Metal
  10
-534.5
  20
408.75
  0
VERTEX
  8
Thick_Metal
  10
-533
  20
405.75
  0
VERTEX
  8
Thick_Metal
  10
-531.25
  20
402.75
  0
VERTEX
  8
Thick_Metal
  10
-529.5
  20
399.75
  0
VERTEX
  8
Thick_Metal
  10
-527.25
  20
397
  0
VERTEX
  8
Thick_Metal
  10
-525
  20
394.5
  0
VERTEX
  8
Thick_Metal
  10
-522.5
  20
392
  0
VERTEX
  8
Thick_Metal
  10
-520
  20
389.75
  0
VERTEX
  8
Thick_Metal
  10
-517
  20
387.75
  0
VERTEX
  8
Thick_Metal
  10
-514
  20
386
  0
VERTEX
  8
Thick_Metal
  10
-511
  20
384.5
  0
VERTEX
  8
Thick_Metal
  10
-508
  20
383
  0
VERTEX
  8
Thick_Metal
  10
-504.5
  20
382
  0
VERTEX
  8
Thick_Metal
  10
-501.25
  20
381.25
  0
VERTEX
  8
Thick_Metal
  10
-498
  20
380.5
  0
VERTEX
  8
Thick_Metal
  10
-494.5
  20
380.25
  0
VERTEX
  8
Thick_Metal
  10
-491
  20
380
  0
SEQEND
  0
POLYLINE
  8
Thick_Metal
  70
1
  66
1
  0
VERTEX
  8
Thick_Metal
  10
-491
  20
368.5
  0
VERTEX
  8
Thick_Metal
  10
-491
  20
387
  0
VERTEX
  8
Thick_Metal
  10
-481
  20
387
  0
VERTEX
  8
Thick_Metal
  10
-481
  20
398.5
  0
VERTEX
  8
Thick_Metal
  10
-471
  20
398.5
  0
VERTEX
  8
Thick_Metal
  10
-471
  20
368.5
  0
SEQEND
  0
POLYLINE
  8
Thick_Metal
  70
1
  66
1
  0
VERTEX
  8
Thick_Metal
  10
-471
  20
368.5
  0
VERTEX
  8
Thick_Metal
  10
-471
  20
368.5
  0
VERTEX
  8
Thick_Metal
  10
-471
  20
398.5
  0
VERTEX
  8
Thick_Metal
  10
-471
  20
398.5
  0
SEQEND
  0
POLYLINE
  8
Thick_Metal
  70
1
  66
1
  0
VERTEX
  8
Thick_Metal
  10
-454
  20
356.75
  0
VERTEX
  8
Thick_Metal
  10
-454
  20
306.75
  0
VERTEX
  8
Thick_Metal
  10
-344
  20
306.75
  0
VERTEX
  8
Thick_Metal
  10
-344
  20
356.75
  0
SEQEND
  0
POLYLINE
  8
Thick_Metal
  70
1
  66
1
  0
VERTEX
  8
Thick_Metal
  10
-471
  20
318.5
  0
VERTEX
  8
Thick_Metal
  10
-471
  20
368.5
  0
VERTEX
  8
Thick_Metal
  10
-491
  20
368.5
  0
VERTEX
  8
Thick_Metal
  10
-491
  20
318.5
  0
SEQEND
  0
POLYLINE
  8
Thick_Metal
  70
1
  66
1
  0
VERTEX
  8
Thick_Metal
  10
-454
  20
306.75
  0
VERTEX
  8
Thick_Metal
  10
-329.5
  20
182.25
  0
VERTEX
  8
Thick_Metal
  10
-329.5
  20
292.25
  0
VERTEX
  8
Thick_Metal
  10
-344
  20
292.25
  0
VERTEX
  8
Thick_Metal
  10
-344
  20
306.75
  0
SEQEND
  0
POLYLINE
  8
Thick_Metal
  70
1
  66
1
  0
VERTEX
  8
Thick_Metal
  10
-129.5
  20
182.25
  0
VERTEX
  8
Thick_Metal
  10
-329.5
  20
182.25
  0
VERTEX
  8
Thick_Metal
  10
-329.5
  20
292.25
  0
VERTEX
  8
Thick_Metal
  10
-129.5
  20
292.25
  0
SEQEND
  0
POLYLINE
  8
Thick_Metal
  70
1
  66
1
  0
VERTEX
  8
Thick_Metal
  10
-471
  20
316.5
  0
VERTEX
  8
Thick_Metal
  10
-502
  20
285.5
  0
VERTEX
  8
Thick_Metal
  10
-502
  20
305.5
  0
VERTEX
  8
Thick_Metal
  10
-491
  20
305.5
  0
VERTEX
  8
Thick_Metal
  10
-491
  20
316.5
  0
SEQEND
  0
POLYLINE
  8
Thick_Metal
  70
1
  66
1
  0
VERTEX
  8
Thick_Metal
  10
-704
  20
285.5
  0
VERTEX
  8
Thick_Metal
  10
-504
  20
285.5
  0
VERTEX
  8
Thick_Metal
  10
-504
  20
305.5
  0
VERTEX
  8
Thick_Metal
  10
-704
  20
305.5
  0
SEQEND
  0
POLYLINE
  8
Thick_Metal
  70
1
  66
1
  0
VERTEX
  8
Thick_Metal
  10
-704
  20
320.5
  0
VERTEX
  8
Thick_Metal
  10
-924
  20
320.5
  0
VERTEX
  8
Thick_Metal
  10
-924
  20
270.5
  0
VERTEX
  8
Thick_Metal
  10
-704
  20
270.5
  0
SEQEND
  0
POLYLINE
  8
Thick_Metal
  70
1
  66
1
  0
VERTEX
  8
Thick_Metal
  10
-491
  20
318.5
  0
VERTEX
  8
Thick_Metal
  10
-491
  20
316.5
  0
VERTEX
  8
Thick_Metal
  10
-471
  20
316.5
  0
VERTEX
  8
Thick_Metal
  10
-471
  20
318.5
  0
SEQEND
  0
POLYLINE
  8
Thick_Metal
  70
1
  66
1
  0
VERTEX
  8
Thick_Metal
  10
-504
  20
285.5
  0
VERTEX
  8
Thick_Metal
  10
-502
  20
285.5
  0
VERTEX
  8
Thick_Metal
  10
-502
  20
305.5
  0
VERTEX
  8
Thick_Metal
  10
-504
  20
305.5
  0
SEQEND
  0
POLYLINE
  8
Thick_Metal
  70
1
  66
1
  0
VERTEX
  8
Thick_Metal
  10
-5
  20
167.75
  0
VERTEX
  8
Thick_Metal
  10
-5
  20
-332.25
  0
VERTEX
  8
Thick_Metal
  10
-115
  20
-332.25
  0
VERTEX
  8
Thick_Metal
  10
-115
  20
167.75
  0
SEQEND
  0
POLYLINE
  8
Thick_Metal
  70
1
  66
1
  0
VERTEX
  8
Thick_Metal
  10
-5
  20
167.75
  0
VERTEX
  8
Thick_Metal
  10
-129.5
  20
292.25
  0
VERTEX
  8
Thick_Metal
  10
-129.5
  20
182.25
  0
VERTEX
  8
Thick_Metal
  10
-115
  20
182.25
  0
VERTEX
  8
Thick_Metal
  10
-115
  20
167.75
  0
SEQEND
  0
ENDSEC
  0
EOF
